<svg height="7.251763cm" viewBox="0 0 302.25516 72.517631" width="30.225517cm" xmlns="http://www.w3.org/2000/svg"><g transform="translate(346.74332 3.842149)"><rect fill="#f95" height="52.484962" rx="11.629867" width="52.484962" x="-336.74332" y="6.157851"/><path d="m-325.13922 49.851926q-1.07026 0-1.79998-.681069-.68107-.729721-.68107-1.799979v-21.648402q0-1.11891.68107-1.79998.72972-.68107 1.79998-.68107 1.11891 0 1.79998.68107.68107.68107.68107 1.79998v21.648402q0 1.070258-.68107 1.799979-.68107.681069-1.79998.681069zm0-30.94018q-1.3135 0-2.28646-.92432-.92431-.97296-.92431-2.28646 0-1.31349.92431-2.23781.97296-.97296 2.28646-.97296 1.3135 0 2.23781.97296.97296.92432.97296 2.23781 0 1.3135-.97296 2.28646-.92431.92432-2.23781.92432z" fill="#fff"/><path d="m-292.55509 46.106026q.68108.729721.68108 1.702681 0 .875671-.63243 1.45944-.58377.583779-1.55674.583779-1.16755 0-1.75133-.77837l-7.73504-9.243129-7.34586 9.243129q-.72973.77837-1.75134.77837-.97296 0-1.55673-.583779-.53513-.583769-.53513-1.45944 0-.97296.68107-1.799981l7.54045-9.43773-8.02693-9.48637q-.72972-.87567-.72972-1.84863 0-.82702.53513-1.4108.58377-.58377 1.60538-.58377 1.16756 0 1.84863.82702l7.97829 9.53502 7.15127-9.53502q.63242-.82702 1.79997-.82702.97297 0 1.5081.63242.58377.58378.58377 1.45945 0 1.07025-.68107 1.945921l-7.34586 9.58367z" fill="#fff"/><path d="m-272.67352 50.381098q-2.09187 0-3.79455-1.118913-1.65404-1.167548-2.57835-3.210769-.92431-2.091869-.92431-4.670218v-26.561852q0-1.07026.68107-1.75133.68107-.68107 1.75133-.68107 1.07026 0 1.75133.68107.68108.68107.68108 1.75133v26.561852q0 1.799979.68107 2.967537.68107 1.167551 1.75133 1.167551h1.2162q.97297 0 1.55674.68108.63243.681072.63243 1.75133 0 1.07025-.92432 1.75133-.92431.681072-2.38375.681072z" fill="#79989d"/><path d="m-253.72585 23.576006q3.74589 0 6.76208 1.799971 3.06483 1.751339 4.81616 4.864809 1.79999 3.064831 1.79999 6.859379v10.848531q0 1.07025-.72974 1.799981-.68107.68107-1.75133.68107-1.07025 0-1.79997-.68107-.68107-.729731-.68107-1.799981v-1.799979q-1.70269 2.09187-4.1351 3.259421-2.43239 1.167548-5.25398 1.167548-3.50266 0-6.3729-1.75133-2.82159-1.75133-4.47562-4.816161-1.60539-3.113479-1.60539-6.90803 0-3.794548 1.75133-6.859379 1.75133-3.11347 4.81616-4.864809 3.11348-1.799971 6.85938-1.799971zm0 22.62136q2.4324 0 4.37833-1.167559 1.99456-1.216199 3.11347-3.25942 1.1189-2.09187 1.1189-4.670222 0-2.578348-1.1189-4.670208-1.11891-2.091871-3.11347-3.259421-1.94593-1.216209-4.37833-1.216209-2.4324 0-4.42697 1.216209-1.94593 1.16755-3.11348 3.259421-1.11891 2.09186-1.11891 4.670208 0 2.578352 1.11891 4.670222 1.16755 2.043221 3.11348 3.25942 1.99457 1.167559 4.42697 1.167559z" fill="#79989d"/><path d="m-220.43482 23.576006q3.50266 0 6.32425 1.75133 2.87024 1.75133 4.47562 4.86481 1.65404 3.064819 1.65404 6.859381 0 3.794548-1.75133 6.90802-1.75133 3.06483-4.86481 4.864809-3.06483 1.75133-6.81073 1.75133-3.74591 0-6.81073-1.75133-3.01619-1.799979-4.81617-4.864809-1.75133-3.113472-1.75133-6.90802v-22.183531q0-1.11891.68108-1.79998.72972-.68107 1.79998-.68107 1.1189 0 1.79998.68107.68107.68107.68107 1.79998v13.134981q1.70268-2.091871 4.13509-3.259421 2.4324-1.16755 5.25399-1.16755zm-.97296 22.62136q2.4324 0 4.37832-1.167559 1.99458-1.216199 3.11348-3.308069 1.16756-2.09187 1.16756-4.670211 0-2.578351-1.16756-4.62157-1.1189-2.091871-3.11348-3.259421-1.94592-1.216209-4.37832-1.216209-2.43241 0-4.42698 1.216209-1.94592 1.16755-3.06483 3.259421-1.1189 2.043219-1.1189 4.62157 0 2.578341 1.1189 4.670211 1.11891 2.09187 3.06483 3.308069 1.99457 1.167559 4.42698 1.167559z" fill="#79989d"/><g fill="#39595d"><path d="m-184.72509 28.166173q-.46718 0-.78572-.297304-.2973-.318538-.2973-.785728v-9.449937q0-.488425.2973-.785728.31854-.297302.78572-.297302.48842 0 .78573.297302.2973.297303.2973.785728v9.449937q0 .46719-.2973.785728-.29731.297304-.78573.297304zm0-13.505994q-.57336 0-.99808-.403482-.40348-.424706-.40348-.998075 0-.573369.40348-.976851.42472-.424718.99808-.424718.57337 0 .97685.424718.42472.403482.42472.976851 0 .573369-.42472.998075-.40348.403482-.97685.403482z"/><path d="m-173.46555 16.443994q1.46528 0 2.63325.637077 1.16797.637077 1.82628 1.868747.65831 1.210446.65831 2.930553v5.224007q0 .467189-.31854.785727-.2973.297302-.76449.297302-.46719 0-.78572-.297302-.2973-.318538-.2973-.785727v-5.224007q0-1.720107-.93438-2.590779-.91314-.891907-2.44213-.891907-.89189 0-1.63515.36101-.72202.36101-1.14674.976851-.40348.615841-.40348 1.380333v5.988499q0 .467189-.2973.785727-.2973.297302-.78572.297302-.46719 0-.78572-.297302-.29731-.318538-.29731-.785727v-9.471174q0-.488425.29731-.785728.31853-.297302.78572-.297302.48842 0 .78572.297302.2973.297303.2973.785728v.233595q.67955-.679549 1.61393-1.040559.93438-.382246 1.99616-.382246z"/><path d="m-159.21729 26.042584q.38225 0 .63708.297301.27607.297302.27607.764493 0 .467189-.36101.764491-.33978.297304-.89191.297304h-.38225q-1.04056 0-1.91122-.530899-.84943-.552133-1.33786-1.486512-.48842-.934368-.48842-2.102342v-5.245253h-.97685q-.44596 0-.72201-.254831-.27607-.254831-.27607-.637065 0-.424718.27607-.679549.27605-.254831.72201-.254831h.97685v-3.057956q0-.46719.2973-.764493.2973-.297302.76449-.297302.46719 0 .76449.297302.29731.297303.29731.764493v3.057956h1.80504q.44595 0 .72202.254831.27606.254831.27606.679549 0 .382234-.27606.637065-.27607.254831-.72202.254831h-1.80504v5.245253q0 .849436.46718 1.422805.46718.573359 1.14673.573359z"/><path d="m-144.63453 22.177662q0 .403482-.27607.679548-.27606.254832-.70078.254832h-8.06962q.2336 1.486511 1.33786 2.399655 1.12551.913131 2.73942.913131.63708 0 1.31663-.233593.70078-.233585 1.14674-.573359.2973-.233595.70078-.233595.40348 0 .63706.212359.38225.318539.38225.722009 0 .382246-.33977.637077-.72201.573369-1.80504.934379-1.0618.361011-2.03865.361011-1.74133 0-3.12166-.743256-1.38032-.764493-2.16605-2.102342-.76449-1.337862-.76449-3.036733 0-1.69886.72202-3.036721.74325-1.359086 2.03863-2.102342 1.31663-.764492 2.97301-.764492 1.63517 0 2.82438.72202 1.1892.722021 1.82627 2.017398.63708 1.29539.63708 2.973014zm-5.28773-3.886157q-1.55021 0-2.52706.849436-.95561.849435-1.21044 2.27224h7.07154q-.19112-1.422805-1.0618-2.27224-.87067-.849436-2.27224-.849436z"/><path d="m-135.12535 16.422758q1.12549 0 1.76257.339774.63707.339775.63707.849436 0 .148651-.0212.212359-.19113.679537-.84944.679537-.10618 0-.31854-.04247-.84943-.148651-1.38032-.148651-1.52898 0-2.46336.700784-.93438.700785-.93438 1.889995v6.200858q0 .50966-.27606.785727-.25483.276068-.78572.276068-.50967 0-.78573-.254831-.27607-.276068-.27607-.806964v-9.49241q0-.509661.27607-.785728.27606-.276066.78573-.276066 1.06178 0 1.06178 1.061794v.403482q.63708-.743256 1.57145-1.167974.93438-.424718 1.99618-.424718z"/><path d="m-125.59184 16.46523q1.63516 0 2.95178.785728 1.33786.764492 2.10234 2.123578.78573 1.337861.78573 2.994249v4.735593q0 .467189-.31854.785727-.2973.297302-.76448.297302-.46719 0-.78573-.297302-.2973-.318538-.2973-.785727v-.785729q-.74326.913143-1.80505 1.422806-1.06178.509661-2.29346.509661-1.52899 0-2.78189-.764493-1.23169-.764492-1.95371-2.102342-.70078-1.359097-.70078-3.015496 0-1.656388.76449-2.994249.76449-1.359086 2.10235-2.123578 1.35909-.785728 2.99425-.785728zm0 9.874655q1.0618 0 1.91122-.50965.87067-.530897 1.3591-1.422805.48842-.913143.48842-2.038645 0-1.125491-.48842-2.038634-.48843-.913144-1.3591-1.422805-.84942-.530897-1.91122-.530897-1.06179 0-1.93246.530897-.84944.509661-1.35909 1.422805-.48842.913143-.48842 2.038634 0 1.125502.48842 2.038645.50965.891908 1.35909 1.422805.87067.50965 1.93246.50965z"/><path d="m-110.78089 28.251116q-1.67763 0-3.01549-.764493-1.33786-.764492-2.10234-2.102342-.74326-1.359097-.74326-3.015496 0-1.69886.72202-3.036721.74325-1.359086 2.05987-2.102342 1.31663-.764492 2.97302-.764492 2.50583 0 4.16222 1.911219.21236.233595.21236.552133 0 .467189-.46719.785728-.21236.148651-.48843.148651-.48841 0-.82818-.382246-.5309-.573369-1.16798-.8282-.61584-.276066-1.4228-.276066-1.63515 0-2.65448 1.104266-1.01932 1.083031-1.01932 2.88807 0 1.146738.46719 2.059881.48842.891909 1.33786 1.401569.87067.50965 1.97493.50965 1.44404 0 2.33594-.743245.40349-.297302.78572-.297302.2973 0 .55213.191123.40349.339774.40349.76448 0 .318539-.25483.573369-1.52898 1.422806-3.82245 1.422806z"/><path d="m-98.171354 26.042584q.382246 0 .637077.297301.276066.297302.276066.764493 0 .467189-.36101.764491-.339774.297304-.891907.297304h-.382246q-1.040559 0-1.911216-.530899-.84944-.552133-1.33786-1.486512-.48843-.934368-.48843-2.102342v-5.245253h-.97685q-.44595 0-.72202-.254831-.27606-.254831-.27606-.637065 0-.424718.27606-.679549.27607-.254831.72202-.254831h.97685v-3.057956q0-.46719.2973-.764493.29731-.297302.76449-.297302.46719 0 .7645.297302.2973.297303.2973.764493v3.057956h1.805039q.445953 0 .72202.254831.276067.254831.276067.679549 0 .382234-.276067.637065-.276067.254831-.72202.254831h-1.805039v5.245253q0 .849436.46718 1.422805.467187.573359 1.146736.573359z"/><path d="m-92.861119 28.166173q-.467189 0-.785728-.297304-.297302-.318538-.297302-.785728v-9.449937q0-.488425.297302-.785728.318539-.297302.785728-.297302.488426 0 .785728.297302.297303.297303.297303.785728v9.449937q0 .46719-.297303.785728-.297302.297304-.785728.297304zm0-13.505994q-.573369 0-.998086-.403482-.403471-.424706-.403471-.998075 0-.573369.403471-.976851.424717-.424718.998086-.424718.573369 0 .976851.424718.424718.403482.424718.976851 0 .573369-.424718.998075-.403482.403482-.976851.403482z"/><path d="m-78.787403 16.698825q.276067.127415.424718.36101.148652.212359.148652.488425 0 .191123-.10618.403482l-4.501997 9.492409q-.318539.700786-.97684.700786-.36101 0-.594605-.148651-.233595-.169888-.424718-.552135l-4.501999-9.492409q-.08494-.169887-.08494-.382246 0-.573369.594605-.870671.191123-.10618.445954-.10618.25483 0 .488425.148652.233595.127415.36101.382246l3.695036 7.963436 3.652562-7.963436q.127415-.254831.36101-.382246.254831-.148652.530886-.148652.276067 0 .488425.10618z"/><path d="m-66.060836 22.177662q0 .403482-.276067.679548-.276066.254832-.700784.254832h-8.069616q.233595 1.486511 1.337861 2.399655 1.125502.913131 2.739419.913131.637076 0 1.316625-.233593.700784-.233585 1.146738-.573359.297303-.233595.700784-.233595.403471 0 .637066.212359.382246.318539.382246.722009 0 .382246-.339775.637077-.722008.573369-1.805039.934379-1.061794.361011-2.038645.361011-1.741332 0-3.121665-.743256-1.380321-.764493-2.166049-2.102342-.764492-1.337862-.764492-3.036733 0-1.69886.72202-3.036721.743256-1.359086 2.038634-2.102342 1.316625-.764492 2.973013-.764492 1.635164 0 2.824374.72202 1.189198.722021 1.826275 2.017398.637077 1.29539.637077 2.973014zm-5.287726-3.886157q-1.550208 0-2.527059.849436-.955615.849435-1.210446 2.27224h7.07154q-.191123-1.422805-1.061794-2.27224-.870672-.849436-2.272241-.849436z"/><path d="m-175.28689 44.215305q0 .403485-.27606.679549-.27607.254832-.70079.254832h-8.06961q.23359 1.486513 1.33786 2.399643 1.1255.913146 2.73942.913146.63707 0 1.31662-.233598.70079-.233593 1.14674-.573367.2973-.233598.70078-.233598.40349 0 .63707.212362.38225.318539.38225.72202 0 .382245-.33978.637077-.72201.573368-1.80504.934378-1.06179.361009-2.03864.361009-1.74134 0-3.12167-.743254-1.38032-.764495-2.16605-2.102352-.76449-1.337852-.76449-3.036724 0-1.698858.72202-3.03672.74326-1.359096 2.03863-2.102351 1.31663-.764482 2.97303-.764482 1.63515 0 2.82436.722008 1.18921.722022 1.82628 2.017409.63707 1.295391.63707 2.973013zm-5.28771-3.886155q-1.55022 0-2.52707.849436-.95562.849435-1.21045 2.27223h7.07154q-.19112-1.422795-1.06179-2.27223-.87067-.849436-2.27223-.849436z"/><path d="m-164.33351 48.568652q.29731.318538.29731.743258 0 .382245-.27607.637075-.25483.254831-.67955.254831-.50966 0-.76449-.339774l-3.3765-4.034808-3.2066 4.034808q-.31854.339774-.7645.339774-.42471 0-.67954-.254831-.2336-.25483-.2336-.637075 0-.42472.2973-.785729l3.29155-4.119753-3.50391-4.140985q-.31853-.382248-.31853-.806965 0-.361009.23359-.615842.25483-.254819.70078-.254819.50967 0 .80697.361l3.48267 4.162224 3.12167-4.162224q.27606-.361.78573-.361.42471 0 .65831.276055.25483.254832.25483.637078 0 .46719-.2973.849436l-3.20661 4.183458z"/><path d="m-155.4858 38.502875q1.63516 0 2.97302.785716 1.35909.764491 2.12357 2.123588.7645 1.337849.7645 2.994249 0 1.6564-.72202 3.015484-.70079 1.337863-1.95369 2.102356-1.23169.76449-2.76066.76449-1.23168 0-2.29347-.509661-1.0618-.509661-1.80504-1.422803v5.733678q0 .488425-.29731.785716-.2973.297304-.78572.297304-.46719 0-.78573-.297304-.2973-.297291-.2973-.785716v-9.683544q0-1.6564.76449-2.994249.78573-1.359097 2.10234-2.123588 1.33786-.785716 2.97302-.785716zm0 9.874654q1.06179 0 1.91122-.509662.87067-.530896 1.3591-1.422793.50966-.913142.50966-2.038646 0-1.125499-.50966-2.038632-.48843-.913143-1.3591-1.422804-.84943-.5309-1.91122-.5309-1.06179 0-1.93246.5309-.84944.509661-1.33786 1.422804-.48842.913133-.48842 2.038632 0 1.125504.48842 2.038646.48842.891897 1.33786 1.422793.87067.509662 1.93246.509662z"/><path d="m-135.96742 44.215305q0 .403485-.27606.679549-.27607.254832-.70079.254832h-8.06961q.23359 1.486513 1.33786 2.399643 1.1255.913146 2.73942.913146.63707 0 1.31662-.233598.70078-.233593 1.14674-.573367.29729-.233598.70077-.233598.40348 0 .63708.212362.38224.318539.38224.72202 0 .382245-.33977.637077-.72202.573368-1.80504.934378-1.06179.361009-2.03864.361009-1.74134 0-3.12167-.743254-1.38033-.764495-2.16606-2.102352-.76448-1.337852-.76448-3.036724 0-1.698858.72201-3.03672.74325-1.359096 2.03864-2.102351 1.31663-.764482 2.97302-.764482 1.63516 0 2.82437.722008 1.1892.722022 1.82628 2.017409.63707 1.295391.63707 2.973013zm-5.28772-3.886155q-1.55021 0-2.52706.849436-.95562.849435-1.21045 2.27223h7.07153q-.19112-1.422795-1.06178-2.27223-.87067-.849436-2.27224-.849436z"/><path d="m-127.36632 38.460404q1.1255 0 1.76258.339762.63708.339774.63708.849436 0 .148651-.0212.212357-.19112.679549-.84944.679549-.10617 0-.31853-.04247-.84944-.148651-1.38033-.148651-1.52898 0-2.46336.700783-.93438.700784-.93438 1.889985v6.200869q0 .509661-.27606.785726-.25482.276067-.78572.276067-.50966 0-.78573-.254832-.27607-.276065-.27607-.806961v-9.492422q0-.509661.27607-.785729.27607-.276055.78573-.276055 1.06178 0 1.06178 1.061784v.403481q.63708-.743255 1.57146-1.167974.93438-.424704 1.99616-.424704z"/><path d="m-120.82712 50.203816q-.46719 0-.78573-.297303-.2973-.318539-.2973-.785726v-9.44995q0-.488426.2973-.785729.31854-.297291.78573-.297291.48842 0 .78573.297291.2973.297303.2973.785729v9.44995q0 .467187-.2973.785726-.29731.297303-.78573.297303zm0-13.505993q-.57337 0-.99809-.403481-.40348-.424719-.40348-.998087 0-.573358.40348-.976839.42472-.424719.99809-.424719.57337 0 .97685.424719.42472.403481.42472.976839 0 .573368-.42472.998087-.40348.403481-.97685.403481z"/><path d="m-105.26691 44.215305q0 .403485-.27606.679549-.27607.254832-.70078.254832h-8.06961q.23359 1.486513 1.33785 2.399643 1.1255.913146 2.73943.913146.63706 0 1.31661-.233598.70078-.233593 1.14674-.573367.2973-.233598.70078-.233598.40348 0 .63708.212362.38225.318539.38225.72202 0 .382245-.33978.637077-.72202.573368-1.80505.934378-1.06179.361009-2.03863.361009-1.74135 0-3.12168-.743254-1.38032-.764495-2.16605-2.102352-.76449-1.337852-.76449-3.036724 0-1.698858.72202-3.03672.74326-1.359096 2.03863-2.102351 1.31663-.764482 2.97303-.764482 1.63515 0 2.82436.722008 1.18921.722022 1.82628 2.017409.63707 1.295391.63707 2.973013zm-5.28771-3.886155q-1.55022 0-2.52707.849436-.95561.849435-1.21044 2.27223h7.07153q-.19112-1.422795-1.06179-2.27223-.87067-.849436-2.27223-.849436z"/><path d="m-96.728105 38.481639q1.465276 0 2.633239.637065 1.167974.637075 1.826286 1.868759.658313 1.210445.658313 2.93054v5.22402q0 .467187-.318539.785726-.297302.297302-.764492.297302-.467189 0-.785728-.297302-.297302-.318539-.297302-.785726v-5.22402q0-1.720095-.934379-2.590766-.913132-.891906-2.442116-.891906-.891908 0-1.635164.361009-.722009.36101-1.146727.976848-.403486.615842-.403486 1.380324v5.988511q0 .467187-.2973.785726-.2973.297302-.78573.297302-.46719 0-.78572-.297302-.29731-.318539-.29731-.785726v-9.471186q0-.488426.29731-.785729.31853-.297291.78572-.297291.48843 0 .78573.297291.2973.297303.2973.785729v.233594q.679553-.679548 1.613921-1.040559.934379-.382233 1.996174-.382233z"/><path d="m-82.915958 50.288758q-1.677624 0-3.015485-.76449-1.337864-.764493-2.102344-2.102356-.743256-1.359084-.743256-3.015484 0-1.698858.72202-3.03672.743245-1.359096 2.059872-2.102351 1.316625-.764482 2.973013-.764482 2.505835 0 4.162224 1.911217.212358.233596.212358.552135 0 .467187-.467189.785727-.212359.148651-.488414.148651-.488426 0-.8282-.382245-.530897-.573368-1.167974-.8282-.615841-.276068-1.422805-.276068-1.635152 0-2.654475 1.104268-1.019322 1.083029-1.019322 2.888068 0 1.146739.467189 2.059884.488426.891894 1.337861 1.401555.870672.509662 1.974927.509662 1.44404 0 2.335948-.743255.403482-.297303.785728-.297303.297291 0 .552121.191122.403482.339774.403482.764494 0 .318535-.25483.573368-1.528973 1.422803-3.822449 1.422803z"/><path d="m-66.042424 44.215305q0 .403485-.276067.679549-.276066.254832-.700784.254832h-8.069616q.233595 1.486513 1.337861 2.399643 1.125491.913146 2.739419.913146.637076 0 1.316625-.233598.700773-.233593 1.146727-.573367.297302-.233598.700784-.233598.403482 0 .637077.212362.382246.318539.382246.72202 0 .382245-.339774.637077-.722021.573368-1.805051.934378-1.061783.361009-2.038634.361009-1.741343 0-3.121665-.743254-1.380333-.764495-2.166061-2.102352-.764492-1.337852-.764492-3.036724 0-1.698858.722021-3.03672.743256-1.359096 2.038645-2.102351 1.316614-.764482 2.973013-.764482 1.635164 0 2.824362.722008 1.18921.722022 1.826287 2.017409.637077 1.295391.637077 2.973013zm-5.287726-3.886155q-1.55022 0-2.527059.849436-.955615.849435-1.210446 2.27223h7.071529q-.191123-1.422795-1.061795-2.27223-.87066-.849436-2.272229-.849436z"/><path d="m-59.053842 50.288758q-1.44404 0-2.718194-.445952-1.274142-.445955-1.996162-1.167974-.276067-.276067-.276067-.658312 0-.509662.424718-.8282.403482-.297304.743256-.297304.424707 0 .806953.382249.403482.445951 1.210446.785725.806963.318539 1.720107.318539 1.210434 0 1.868747-.403481.679548-.403483.679548-1.083032 0-.658301-.658312-1.083016-.658313-.445955-2.229757-.743259-4.07728-.785726-4.07728-3.355259 0-1.040558.615841-1.762577.615829-.722022 1.613916-1.083033.998087-.360997 2.123589-.360997 1.380322 0 2.463352.445942 1.104266.445953 1.741343 1.231682.276067.339774.276067.679547 0 .36101-.361022.658314-.233583.169887-.594593.169887-.552134 0-.998087-.403481-.530898-.488426-1.125503-.679548-.594605-.212361-1.444029-.212361-.976851 0-1.613927.339774-.615841.318538-.615841.913144 0 .424717.212359.722021.212359.276067.806964.530884.594604.233596 1.720095.46719 2.314712.467191 3.270327 1.29539.97684.8282.97684 2.144814 0 .976852-.530886 1.783814-.530897.785729-1.571456 1.252918-1.019323.445952-2.463352.445952z"/></g><rect fill="#f95" height="52.384819" rx="1" width="2.423971" x="-198.9158" y="6.290663"/><path d="m-220.43482 114.66827q3.50266 0 6.32425 1.75133 2.87024 1.75133 4.47562 4.86481 1.65404 3.06482 1.65404 6.85938 0 3.79455-1.75133 6.90802-1.75133 3.06483-4.86481 4.86481-3.06483 1.75133-6.81073 1.75133-3.74591 0-6.81073-1.75133-3.01619-1.79998-4.81617-4.86481-1.75133-3.11347-1.75133-6.90802v-22.18353q0-1.11891.68108-1.79998.72972-.68107 1.79998-.68107 1.1189 0 1.79998.68107.68107.68107.68107 1.79998v13.13498q1.70268-2.09187 4.13509-3.25942 2.4324-1.16755 5.25399-1.16755zm-.97296 22.62136q2.4324 0 4.37832-1.16756 1.99458-1.2162 3.11348-3.30807 1.16756-2.09187 1.16756-4.67021 0-2.57835-1.16756-4.62157-1.1189-2.09187-3.11348-3.25942-1.94592-1.21621-4.37832-1.21621-2.43241 0-4.42698 1.21621-1.94592 1.16755-3.06483 3.25942-1.1189 2.04322-1.1189 4.62157 0 2.57834 1.1189 4.67021 1.11891 2.09187 3.06483 3.30807 1.99457 1.16756 4.42698 1.16756z" fill="#96b5b8"/></g></svg>